# 3ds Max Wavefront OBJ Exporter v0.97b - (c)2007 guruware
# File Created: 05.02.2017 20:07:46

mtllib Picture Frame - Square.mtl

#
# object Box001
#

v  -16.5475 -0.5064 7.7586
v  16.5475 -0.5064 7.7586
v  16.5475 -0.5064 32.2414
v  -16.5475 -0.5064 32.2414
v  16.5475 0.0500 7.7586
v  -16.5475 0.0500 7.7586
v  -16.5475 0.0500 32.2414
v  16.5475 0.0500 32.2414
v  16.6302 -0.7600 7.6973
v  -16.6302 -0.7600 7.6973
v  -17.0498 -0.7600 7.3870
v  17.0498 -0.7600 7.3870
v  -16.6302 -0.7600 32.3027
v  -17.0498 -0.7600 32.6130
v  16.6302 -0.7600 32.3027
v  17.0498 -0.7600 32.6130
v  -16.5475 -0.7500 7.7586
v  16.5475 -0.7500 7.7586
v  -16.5475 -0.7500 32.2414
v  16.5475 -0.7500 32.2414
v  17.1325 -0.7500 32.6742
v  17.1325 -0.7500 7.3258
v  17.1325 -0.5154 7.3258
v  17.1325 -0.5154 32.6742
v  -17.1325 -0.7500 7.3258
v  -17.1325 -0.7500 32.6742
v  -17.1325 -0.5154 32.6742
v  -17.1325 -0.5154 7.3258
v  17.4250 -1.1154 32.8906
v  17.4250 -1.1154 7.1094
v  18.0101 -1.1154 6.6766
v  18.0101 -1.1154 33.3234
v  -17.4250 -1.1154 7.1094
v  -18.0101 -1.1154 6.6766
v  -17.4250 -1.1154 32.8906
v  -18.0101 -1.1154 33.3234
v  17.1325 -0.6154 7.3258
v  17.1325 -0.6154 32.6742
v  -17.1325 -0.6154 7.3258
v  -17.1325 -0.6154 32.6742
v  18.3026 -0.5154 6.4602
v  18.3026 -0.5154 33.5398
v  18.3026 -0.6154 33.5398
v  18.3026 -0.6154 6.4602
v  -18.3026 -0.5154 33.5398
v  -18.3026 -0.6154 33.5398
v  -18.3026 -0.5154 6.4602
v  -18.3026 -0.6154 6.4602
v  17.3190 -1.0466 32.8122
v  17.3190 -1.0466 7.1878
v  17.2349 -0.9404 32.7500
v  17.2349 -0.9404 7.2500
v  18.1161 -1.0466 6.5981
v  18.1161 -1.0466 33.4019
v  18.2002 -0.9404 6.5359
v  18.2002 -0.9404 33.4641
v  -17.3190 -1.0466 7.1878
v  -17.2349 -0.9404 7.2500
v  -18.1161 -1.0466 6.5981
v  -18.2002 -0.9404 6.5359
v  -17.3190 -1.0466 32.8122
v  -17.2349 -0.9404 32.7500
v  -18.1161 -1.0466 33.4019
v  -18.2002 -0.9404 33.4641
v  17.1727 -0.7966 7.2960
v  17.1727 -0.7966 32.7040
v  -17.1727 -0.7966 7.2960
v  -17.1727 -0.7966 32.7040
v  18.2624 -0.7966 33.5101
v  18.2624 -0.7966 6.4899
v  -18.2624 -0.7966 33.5101
v  -18.2624 -0.7966 6.4899
v  -24.6342 -1.5878 38.2239
v  24.6342 -1.5878 38.2239
v  25.1945 -1.5878 38.6383
v  -25.1945 -1.5878 38.6383
v  24.6342 -1.5878 1.7761
v  25.1945 -1.5878 1.3617
v  -24.6342 -1.5878 1.7761
v  -25.1945 -1.5878 1.3617
v  23.7744 -1.6378 37.5878
v  -23.7744 -1.6378 37.5878
v  23.7744 -1.6378 2.4122
v  -23.7744 -1.6378 2.4122
v  -26.0543 -1.6378 39.2744
v  26.0543 -1.6378 39.2744
v  26.0543 0.2500 39.2744
v  -26.0543 0.2500 39.2744
v  26.0543 -1.6378 0.7256
v  26.0543 0.2500 0.7256
v  -26.0543 -1.6378 0.7256
v  -26.0543 0.2500 0.7256
v  -17.7840 0.2500 33.1562
v  -17.7840 0.2500 6.8438
v  17.7840 0.2500 6.8438
v  17.7840 0.2500 33.1562
v  23.9894 -1.6878 37.7468
v  -23.9894 -1.6878 37.7468
v  23.9894 -1.6878 2.2532
v  -23.9894 -1.6878 2.2532
v  -25.8393 -1.6878 39.1154
v  25.8393 -1.6878 39.1154
v  -25.8393 -1.6878 0.8846
v  25.8393 -1.6878 0.8846
v  24.0969 -1.6878 37.8263
v  -24.0969 -1.6878 37.8263
v  24.0969 -1.6878 2.1737
v  -24.0969 -1.6878 2.1737
v  -25.7319 -1.6878 39.0359
v  25.7319 -1.6878 39.0359
v  -25.7319 -1.6878 0.9641
v  25.7319 -1.6878 0.9641
v  24.3118 -1.6378 37.9853
v  -24.3118 -1.6378 37.9853
v  24.3118 -1.6378 2.0147
v  -24.3118 -1.6378 2.0147
v  -25.5169 -1.6378 38.8768
v  25.5169 -1.6378 38.8768
v  -25.5169 -1.6378 1.1231
v  25.5169 -1.6378 1.1231
v  24.4193 -1.6378 38.0648
v  -24.4193 -1.6378 38.0648
v  24.4193 -1.6378 1.9352
v  -24.4193 -1.6378 1.9352
v  -25.4094 -1.6378 38.7973
v  25.4094 -1.6378 38.7973
v  -25.4094 -1.6378 1.2027
v  25.4094 -1.6378 1.2027
# 128 vertices

vn 0.0000 -1.0000 0.0000
vn 0.0000 1.0000 0.0000
vn 0.0000 0.0000 1.0000
vn 1.0000 0.0000 0.0000
vn 0.0000 0.0000 -1.0000
vn -1.0000 0.0000 0.0000
vn 0.0000 -0.0000 -1.0000
vn -0.0892 -0.9926 -0.0827
vn -0.0892 -0.9926 0.0827
vn 0.2108 -0.9354 -0.2840
vn 0.2108 -0.9354 0.2840
vn 0.0892 -0.9926 0.0827
vn -0.2108 -0.9354 -0.2840
vn 0.0892 -0.9926 -0.0827
vn -0.2108 -0.9354 0.2840
vn -0.7071 0.0000 -0.7071
vn -0.7071 0.0000 0.7071
vn -0.6921 -0.1410 0.7079
vn -0.6921 -0.1410 -0.7079
vn 0.7071 0.0000 0.7071
vn 0.6921 -0.1410 0.7079
vn 0.7071 0.0000 -0.7071
vn 0.6921 -0.1410 -0.7079
vn 0.7064 -0.1258 0.6966
vn 0.7064 -0.1258 -0.6966
vn -0.7064 -0.1258 0.6966
vn -0.7064 -0.1258 -0.6966
vn -0.3591 -0.8336 -0.4197
vn -0.3591 -0.8336 0.4197
vn -0.5307 -0.6194 -0.5785
vn -0.5307 -0.6194 0.5785
vn 0.4291 -0.7636 -0.4824
vn 0.4291 -0.7636 0.4824
vn 0.5739 -0.5596 -0.5979
vn 0.5739 -0.5596 0.5979
vn 0.3591 -0.8336 0.4197
vn 0.5307 -0.6194 0.5785
vn -0.4291 -0.7636 -0.4824
vn -0.5739 -0.5596 -0.5979
vn 0.3591 -0.8336 -0.4197
vn 0.5307 -0.6194 -0.5785
vn -0.4291 -0.7636 0.4824
vn -0.5739 -0.5596 0.5979
vn -0.6394 -0.3858 0.6650
vn -0.6394 -0.3858 -0.6650
vn 0.6394 -0.3858 0.6650
vn 0.6394 -0.3858 -0.6650
vn 0.6595 -0.3527 0.6638
vn 0.6595 -0.3527 -0.6638
vn -0.6595 -0.3527 0.6638
vn -0.6595 -0.3527 -0.6638
vn 0.0000 -1.0000 -0.0000
vn -0.0000 -1.0000 -0.0000
vn 0.0000 -0.9636 -0.2672
vn -0.2009 -0.9796 -0.0000
vn 0.0000 -0.9636 0.2672
vn 0.2009 -0.9796 -0.0000
vn -0.0000 1.0000 0.0000
vn 0.0000 0.9769 0.2136
vn 0.1597 0.9872 0.0000
vn 0.0000 0.9769 -0.2136
vn -0.1597 0.9872 0.0000
vn 0.0000 -0.9540 -0.2999
vn -0.2266 -0.9740 -0.0000
vn 0.0000 -0.9540 0.3000
vn 0.2266 -0.9740 -0.0000
vn 0.0000 -0.9539 0.3000
vn 0.0000 -0.9540 -0.3000
vn 0.0000 -0.9539 -0.3000
vn 0.0000 -0.9540 0.2999
vn 0.0000 -0.9869 0.1612
vn 0.1200 -0.9928 0.0000
vn 0.0000 -0.9869 -0.1612
vn -0.1200 -0.9928 0.0000
# 74 vertex normals

vt 0.0497 0.0521 0.0000
vt 0.6438 0.0521 0.0000
vt 0.6438 0.4896 0.0000
vt 0.0497 0.4896 0.0000
vt 0.3846 0.8490 0.0000
vt 0.1149 0.8490 0.0000
vt 0.1149 0.6495 0.0000
vt 0.3846 0.6495 0.0000
vt 0.8906 0.6441 0.0000
vt 0.5940 0.6441 0.0000
vt 0.5904 0.6415 0.0000
vt 0.8942 0.6415 0.0000
vt 0.5940 0.8627 0.0000
vt 0.5904 0.8654 0.0000
vt 0.8906 0.8627 0.0000
vt 0.8942 0.8654 0.0000
vt 0.8894 0.6451 0.0000
vt 0.5952 0.6451 0.0000
vt 0.5945 0.6444 0.0000
vt 0.8901 0.6444 0.0000
vt 0.5952 0.8618 0.0000
vt 0.5945 0.8625 0.0000
vt 0.8894 0.8618 0.0000
vt 0.8901 0.8625 0.0000
vt 0.8947 0.8657 0.0000
vt 0.8947 0.6412 0.0000
vt 0.8952 0.6407 0.0000
vt 0.8952 0.8661 0.0000
vt 0.5899 0.6412 0.0000
vt 0.5899 0.8657 0.0000
vt 0.5894 0.8661 0.0000
vt 0.5894 0.6407 0.0000
vt 0.8977 0.8680 0.0000
vt 0.8977 0.6389 0.0000
vt 0.9028 0.6351 0.0000
vt 0.9028 0.8717 0.0000
vt 0.5869 0.6389 0.0000
vt 0.5818 0.6351 0.0000
vt 0.5869 0.8680 0.0000
vt 0.5818 0.8717 0.0000
vt 0.8950 0.6409 0.0000
vt 0.8950 0.8660 0.0000
vt 0.5896 0.6409 0.0000
vt 0.5896 0.8660 0.0000
vt 0.9055 0.6332 0.0000
vt 0.9055 0.8737 0.0000
vt 0.9055 0.6331 0.0000
vt 0.5791 0.8737 0.0000
vt 0.5791 0.6332 0.0000
vt 0.5791 0.6331 0.0000
vt 0.8967 0.8673 0.0000
vt 0.8967 0.6396 0.0000
vt 0.8960 0.8668 0.0000
vt 0.8960 0.6401 0.0000
vt 0.9037 0.6345 0.0000
vt 0.9037 0.8724 0.0000
vt 0.9044 0.6339 0.0000
vt 0.9044 0.8729 0.0000
vt 0.5879 0.6396 0.0000
vt 0.5886 0.6401 0.0000
vt 0.5809 0.6345 0.0000
vt 0.5802 0.6339 0.0000
vt 0.5879 0.8673 0.0000
vt 0.5886 0.8668 0.0000
vt 0.5809 0.8724 0.0000
vt 0.5802 0.8729 0.0000
vt 0.8955 0.6405 0.0000
vt 0.8955 0.8663 0.0000
vt 0.5891 0.6405 0.0000
vt 0.5891 0.8663 0.0000
vt 0.9050 0.8733 0.0000
vt 0.9050 0.6335 0.0000
vt 0.5796 0.8733 0.0000
vt 0.5796 0.6335 0.0000
vt 0.5227 0.9153 0.0000
vt 0.9619 0.9153 0.0000
vt 0.9669 0.9190 0.0000
vt 0.5177 0.9190 0.0000
vt 0.9619 0.5916 0.0000
vt 0.9669 0.5879 0.0000
vt 0.5227 0.5916 0.0000
vt 0.5177 0.5879 0.0000
vt 0.9544 0.9099 0.0000
vt 0.5302 0.9099 0.0000
vt 0.9544 0.5970 0.0000
vt 0.5302 0.5970 0.0000
vt 0.0375 0.5728 0.0000
vt 0.4621 0.5728 0.0000
vt 0.4621 0.5924 0.0000
vt 0.0375 0.5924 0.0000
vt 0.4817 0.5924 0.0000
vt 0.4817 0.9060 0.0000
vt 0.4621 0.9060 0.0000
vt 0.4621 0.9262 0.0000
vt 0.0375 0.9257 0.0000
vt 0.0375 0.9060 0.0000
vt 0.0205 0.9060 0.0000
vt 0.0205 0.5924 0.0000
vt 0.1048 0.6420 0.0000
vt 0.1048 0.8565 0.0000
vt 0.3947 0.8565 0.0000
vt 0.3947 0.6420 0.0000
vt 0.9562 0.9111 0.0000
vt 0.5284 0.9111 0.0000
vt 0.9562 0.5958 0.0000
vt 0.5284 0.5958 0.0000
vt 0.9745 0.9245 0.0000
vt 0.5101 0.9245 0.0000
vt 0.5120 0.9231 0.0000
vt 0.9726 0.9231 0.0000
vt 0.5101 0.5824 0.0000
vt 0.5120 0.5838 0.0000
vt 0.9745 0.5824 0.0000
vt 0.9726 0.5838 0.0000
vt 0.9571 0.9118 0.0000
vt 0.5275 0.9118 0.0000
vt 0.9571 0.5951 0.0000
vt 0.5275 0.5951 0.0000
vt 0.5130 0.9224 0.0000
vt 0.9716 0.9224 0.0000
vt 0.5130 0.5844 0.0000
vt 0.9716 0.5844 0.0000
vt 0.9590 0.9132 0.0000
vt 0.5256 0.9132 0.0000
vt 0.9590 0.5937 0.0000
vt 0.5256 0.5937 0.0000
vt 0.5149 0.9211 0.0000
vt 0.9697 0.9211 0.0000
vt 0.5149 0.5858 0.0000
vt 0.9697 0.5858 0.0000
vt 0.9600 0.9139 0.0000
vt 0.5246 0.9139 0.0000
vt 0.9600 0.5930 0.0000
vt 0.5246 0.5930 0.0000
vt 0.5158 0.9204 0.0000
vt 0.9688 0.9204 0.0000
vt 0.5158 0.5865 0.0000
vt 0.9688 0.5865 0.0000
# 138 texture coords

g Box001
usemtl 01___Default
s 1
f 1/1/1 2/2/1 3/3/1 4/4/1 
f 5/5/2 6/6/2 7/7/2 8/8/2 
f 9/9/1 10/10/1 11/11/1 12/12/1 
f 10/10/1 13/13/1 14/14/1 11/11/1 
f 13/13/1 15/15/1 16/16/1 14/14/1 
f 15/15/1 9/9/1 12/12/1 16/16/1 
s 2
f 2/17/3 1/18/3 17/19/3 18/20/3 
s 4
f 1/18/4 4/21/4 19/22/4 17/19/4 
s 2
f 4/21/5 3/23/5 20/24/5 19/22/5 
s 4
f 3/23/6 2/17/6 18/20/6 20/24/6 
s 2
f 21/25/4 22/26/4 23/27/4 24/28/4 
f 25/29/6 26/30/6 27/31/6 28/32/6 
s 4
f 27/31/3 26/30/3 21/25/3 24/28/3 
f 23/27/7 22/26/7 25/29/7 28/32/7 
s 8
f 29/33/8 30/34/9 31/35/10 32/36/11 
f 30/34/9 33/37/12 34/38/13 31/35/10 
f 33/37/12 35/39/14 36/40/15 34/38/13 
f 35/39/14 29/33/8 32/36/11 36/40/15 
f 24/28/16 23/27/17 37/41/18 38/42/19 
f 23/27/17 28/32/20 39/43/21 37/41/18 
f 28/32/20 27/31/22 40/44/23 39/43/21 
f 27/31/22 24/28/16 38/42/19 40/44/23 
f 41/45/22 42/46/20 43/46/24 44/47/25 
f 42/46/20 45/48/17 46/48/26 43/46/24 
f 45/48/17 47/49/16 48/50/27 46/48/26 
f 47/49/16 41/45/22 44/47/25 48/50/27 
f 30/34/9 29/33/8 49/51/28 50/52/29 
f 50/52/29 49/51/28 51/53/30 52/54/31 
f 32/36/11 31/35/10 53/55/32 54/56/33 
f 54/56/33 53/55/32 55/57/34 56/58/35 
f 33/37/12 30/34/9 50/52/29 57/59/36 
f 57/59/36 50/52/29 52/54/31 58/60/37 
f 31/35/10 34/38/13 59/61/38 53/55/32 
f 53/55/32 59/61/38 60/62/39 55/57/34 
f 35/39/14 33/37/12 57/59/36 61/63/40 
f 61/63/40 57/59/36 58/60/37 62/64/41 
f 34/38/13 36/40/15 63/65/42 59/61/38 
f 59/61/38 63/65/42 64/66/43 60/62/39 
f 29/33/8 35/39/14 61/63/40 49/51/28 
f 49/51/28 61/63/40 62/64/41 51/53/30 
f 36/40/15 32/36/11 54/56/33 63/65/42 
f 63/65/42 54/56/33 56/58/35 64/66/43 
f 38/42/19 37/41/18 65/67/44 66/68/45 
f 66/68/45 65/67/44 52/54/31 51/53/30 
f 37/41/18 39/43/21 67/69/46 65/67/44 
f 65/67/44 67/69/46 58/60/37 52/54/31 
f 39/43/21 40/44/23 68/70/47 67/69/46 
f 67/69/46 68/70/47 62/64/41 58/60/37 
f 40/44/23 38/42/19 66/68/45 68/70/47 
f 68/70/47 66/68/45 51/53/30 62/64/41 
f 44/47/25 43/46/24 69/71/48 70/72/49 
f 70/72/49 69/71/48 56/58/35 55/57/34 
f 43/46/24 46/48/26 71/73/50 69/71/48 
f 69/71/48 71/73/50 64/66/43 56/58/35 
f 46/48/26 48/50/27 72/74/51 71/73/50 
f 71/73/50 72/74/51 60/62/39 64/66/43 
f 48/50/27 44/47/25 70/72/49 72/74/51 
f 72/74/51 70/72/49 55/57/34 60/62/39 
s off
f 73/75/52 74/76/52 75/77/52 76/78/52 
f 74/76/53 77/79/53 78/80/53 75/77/53 
f 77/79/52 79/81/52 80/82/52 78/80/52 
f 79/81/52 73/75/52 76/78/52 80/82/52 
f 45/48/54 42/46/54 81/83/54 82/84/54 
f 42/46/55 41/45/55 83/85/55 81/83/55 
f 41/45/56 47/49/56 84/86/56 83/85/56 
f 47/49/57 45/48/57 82/84/57 84/86/57 
s 1
f 85/87/3 86/88/3 87/89/3 88/90/3 
s 2
f 86/91/4 89/92/4 90/93/4 87/89/4 
s 1
f 89/94/5 91/95/5 92/96/5 90/93/5 
s 2
f 91/97/6 85/98/6 88/90/6 92/96/6 
s 4
f 92/96/2 88/90/2 93/99/2 94/100/2 
s 8
f 90/93/2 92/96/2 94/100/2 95/101/2 
s 4
f 87/89/58 90/93/58 95/101/58 96/102/58 
s 8
f 88/90/2 87/89/2 96/102/2 93/99/2 
s off
f 95/101/59 94/100/59 6/6/59 5/5/59 
f 94/100/60 93/99/60 7/7/60 6/6/60 
f 93/99/61 96/102/61 8/8/61 7/7/61 
f 96/102/62 95/101/62 5/5/62 8/8/62 
f 82/84/63 81/83/63 97/103/63 98/104/63 
f 81/83/64 83/85/64 99/105/64 97/103/64 
f 83/85/65 84/86/65 100/106/65 99/105/65 
f 84/86/66 82/84/66 98/104/66 100/106/66 
f 86/107/67 85/108/67 101/109/67 102/110/67 
f 85/108/64 91/111/64 103/112/64 101/109/64 
f 91/111/68 89/113/68 104/114/68 103/112/68 
f 89/113/66 86/107/66 102/110/66 104/114/66 
f 98/104/1 97/103/1 105/115/1 106/116/1 
f 97/103/52 99/105/52 107/117/52 105/115/52 
f 99/105/52 100/106/52 108/118/52 107/117/52 
f 100/106/53 98/104/53 106/116/53 108/118/53 
f 102/110/1 101/109/1 109/119/1 110/120/1 
f 101/109/53 103/112/53 111/121/53 109/119/53 
f 103/112/52 104/114/52 112/122/52 111/121/52 
f 104/114/52 102/110/52 110/120/52 112/122/52 
f 106/116/65 105/115/65 113/123/65 114/124/65 
f 105/115/66 107/117/66 115/125/66 113/123/66 
f 107/117/69 108/118/69 116/126/69 115/125/69 
f 108/118/64 106/116/64 114/124/64 116/126/64 
f 110/120/68 109/119/68 117/127/68 118/128/68 
f 109/119/66 111/121/66 119/129/66 117/127/66 
f 111/121/65 112/122/65 120/130/65 119/129/65 
f 112/122/64 110/120/64 118/128/64 120/130/64 
f 114/124/1 113/123/1 121/131/1 122/132/1 
f 113/123/52 115/125/52 123/133/52 121/131/52 
f 115/125/52 116/126/52 124/134/52 123/133/52 
f 116/126/53 114/124/53 122/132/53 124/134/53 
f 118/128/1 117/127/1 125/135/1 126/136/1 
f 117/127/53 119/129/53 127/137/53 125/135/53 
f 119/129/52 120/130/52 128/138/52 127/137/52 
f 120/130/52 118/128/52 126/136/52 128/138/52 
f 122/132/70 121/131/70 74/76/70 73/75/70 
f 121/131/66 123/133/66 77/79/66 74/76/66 
f 123/133/68 124/134/68 79/81/68 77/79/68 
f 124/134/64 122/132/64 73/75/64 79/81/64 
f 126/136/68 125/135/68 76/78/68 75/77/68 
f 125/135/66 127/137/66 80/82/66 76/78/66 
f 127/137/65 128/138/65 78/80/65 80/82/65 
f 128/138/64 126/136/64 75/77/64 78/80/64 
f 18/20/71 17/19/71 10/10/71 9/9/71 
f 17/19/72 19/22/72 13/13/72 10/10/72 
f 19/22/73 20/24/73 15/15/73 13/13/73 
f 20/24/74 18/20/74 9/9/74 15/15/74 
f 25/29/73 22/26/73 12/12/73 11/11/73 
f 22/26/72 21/25/72 16/16/72 12/12/72 
f 21/25/71 26/30/71 14/14/71 16/16/71 
f 26/30/74 25/29/74 11/11/74 14/14/74 
# 126 polygons

